<svg width="64" height="64" viewBox="0 0 64 64" fill="none" xmlns="http://www.w3.org/2000/svg">
<g clip-path="url(#clip0_2_1725)">
<path d="M42.5335 32.88C42.3198 32.6367 42.2019 32.3239 42.2019 32C42.2019 31.6761 42.3198 31.3633 42.5335 31.12L44.2402 29.2C44.4282 28.9902 44.545 28.7263 44.5738 28.446C44.6025 28.1657 44.5417 27.8836 44.4002 27.64L41.7335 23.0267C41.5934 22.7834 41.38 22.5905 41.1239 22.4756C40.8677 22.3607 40.5818 22.3295 40.3069 22.3867L37.8002 22.8933C37.4812 22.9592 37.1492 22.9061 36.8667 22.744C36.5842 22.5819 36.3709 22.322 36.2669 22.0133L35.4535 19.5733C35.3641 19.3085 35.1937 19.0785 34.9664 18.9158C34.7391 18.7531 34.4664 18.6659 34.1869 18.6667H28.8535C28.5628 18.6515 28.275 18.7319 28.0343 18.8956C27.7935 19.0593 27.613 19.2974 27.5202 19.5733L26.7735 22.0133C26.6695 22.322 26.4561 22.5819 26.1737 22.744C25.8912 22.9061 25.5591 22.9592 25.2402 22.8933L22.6669 22.3867C22.4063 22.3498 22.1406 22.391 21.9033 22.5049C21.666 22.6187 21.4678 22.8003 21.3335 23.0267L18.6669 27.64C18.5217 27.8809 18.4565 28.1614 18.4804 28.4416C18.5044 28.7218 18.6163 28.9873 18.8002 29.2L20.4935 31.12C20.7073 31.3633 20.8252 31.6761 20.8252 32C20.8252 32.3239 20.7073 32.6367 20.4935 32.88L18.8002 34.8C18.6163 35.0127 18.5044 35.2782 18.4804 35.5584C18.4565 35.8386 18.5217 36.1191 18.6669 36.36L21.3335 40.9733C21.4737 41.2166 21.687 41.4095 21.9432 41.5244C22.1994 41.6393 22.4853 41.6705 22.7602 41.6133L25.2669 41.1067C25.5858 41.0408 25.9179 41.0939 26.2003 41.256C26.4828 41.4181 26.6962 41.678 26.8002 41.9867L27.6135 44.4267C27.7063 44.7026 27.8868 44.9407 28.1276 45.1044C28.3684 45.2681 28.6561 45.3485 28.9469 45.3333H34.2802C34.5597 45.3341 34.8324 45.2469 35.0597 45.0842C35.287 44.9215 35.4574 44.6915 35.5469 44.4267L36.3602 41.9867C36.4642 41.678 36.6776 41.4181 36.96 41.256C37.2425 41.0939 37.5746 41.0408 37.8935 41.1067L40.4002 41.6133C40.6751 41.6705 40.961 41.6393 41.2172 41.5244C41.4734 41.4095 41.6867 41.2166 41.8269 40.9733L44.4935 36.36C44.6351 36.1164 44.6959 35.8343 44.6671 35.554C44.6384 35.2737 44.5216 35.0098 44.3335 34.8L42.5335 32.88ZM40.5469 34.6667L41.6135 35.8667L39.9069 38.8267L38.3335 38.5067C37.3732 38.3104 36.3743 38.4735 35.5263 38.9651C34.6783 39.4566 34.0404 40.2425 33.7335 41.1733L33.2269 42.6667H29.8135L29.3335 41.1467C29.0267 40.2158 28.3887 39.43 27.5407 38.9384C26.6928 38.4468 25.6938 38.2837 24.7335 38.48L23.1602 38.8L21.4269 35.8533L22.4935 34.6533C23.1495 33.92 23.5121 32.9706 23.5121 31.9867C23.5121 31.0028 23.1495 30.0534 22.4935 29.32L21.4269 28.12L23.1335 25.1867L24.7069 25.5067C25.6671 25.703 26.6661 25.5398 27.5141 25.0483C28.362 24.5567 29 23.7709 29.3069 22.84L29.8135 21.3333H33.2269L33.7335 22.8533C34.0404 23.7842 34.6783 24.57 35.5263 25.0616C36.3743 25.5532 37.3732 25.7163 38.3335 25.52L39.9069 25.2L41.6135 28.16L40.5469 29.36C39.8983 30.0917 39.5401 31.0356 39.5401 32.0133C39.5401 32.9911 39.8983 33.935 40.5469 34.6667ZM31.5202 26.6667C30.4654 26.6667 29.4342 26.9795 28.5571 27.5655C27.6801 28.1515 26.9965 28.9845 26.5928 29.959C26.1892 30.9336 26.0835 32.0059 26.2893 33.0405C26.4951 34.075 27.0031 35.0254 27.749 35.7712C28.4948 36.5171 29.4451 37.0251 30.4797 37.2309C31.5143 37.4366 32.5866 37.331 33.5612 36.9274C34.5357 36.5237 35.3687 35.8401 35.9547 34.963C36.5407 34.086 36.8535 33.0548 36.8535 32C36.8535 30.5855 36.2916 29.229 35.2914 28.2288C34.2912 27.2286 32.9347 26.6667 31.5202 26.6667ZM31.5202 34.6667C30.9928 34.6667 30.4772 34.5103 30.0387 34.2173C29.6001 33.9242 29.2583 33.5078 29.0565 33.0205C28.8547 32.5332 28.8019 31.997 28.9048 31.4798C29.0077 30.9625 29.2616 30.4873 29.6346 30.1144C30.0075 29.7414 30.4827 29.4875 30.9999 29.3846C31.5172 29.2817 32.0534 29.3345 32.5407 29.5363C33.0279 29.7382 33.4444 30.08 33.7374 30.5185C34.0305 30.957 34.1869 31.4726 34.1869 32C34.1869 32.7072 33.9059 33.3855 33.4058 33.8856C32.9057 34.3857 32.2274 34.6667 31.5202 34.6667Z" fill="black"/>
</g>
<defs>
<clipPath id="clip0_2_1725">
<rect width="64" height="64" rx="32" fill="white"/>
</clipPath>
</defs>
</svg>
